<?xml version="1.0" encoding="UTF-8"?>
<svg version="1.1" xmlns="http://www.w3.org/2000/svg" width="442" height="321">
<path d="M0 0 C145.86 0 291.72 0 442 0 C442 105.93 442 211.86 442 321 C296.14 321 150.28 321 0 321 C0 215.07 0 109.14 0 0 Z " fill="#FEFEFE" transform="translate(0,0)"/>
<path d="M0 0 C2.45104823 1.57259255 4.70822246 3.19931765 7 5 C7.66 3.02 8.32 1.04 9 -1 C9.99 -1 10.98 -1 12 -1 C12.99 1.97 12.99 1.97 14 5 C17.82937463 2.92575541 21.1805514 0.87966361 24.5 -1.9375 C36.22638793 -10.76598746 50.79713734 -11.42553716 64.82421875 -9.640625 C66.94629699 -9.21102452 68.94335274 -8.67330714 71 -8 C71.8353125 -7.73574219 72.670625 -7.47148437 73.53125 -7.19921875 C75.69839585 -6.4935586 77.8520332 -5.76169035 80 -5 C80 -4.34 80 -3.68 80 -3 C79.154375 -2.95101562 78.30875 -2.90203125 77.4375 -2.8515625 C71.05290815 -2.43075986 65.14207405 -1.80649237 59 0 C59 0.66 59 1.32 59 2 C59.94359375 2.103125 60.8871875 2.20625 61.859375 2.3125 C75.48978272 4.28514192 88.20123826 9.27755261 98 19 C99.10191749 20.0118215 100.20897718 21.01806298 101.3203125 22.01953125 C104.23976235 24.65244794 107.12648786 27.31705236 110 30 C109.01 30.495 109.01 30.495 108 31 C105.828125 30.22265625 105.828125 30.22265625 103.25 29.0625 C99.31287363 27.40205975 96.3338158 26.54380886 92 27 C92.59167969 27.38671875 93.18335938 27.7734375 93.79296875 28.171875 C94.58316406 28.69265625 95.37335938 29.2134375 96.1875 29.75 C96.96480469 30.26046875 97.74210938 30.7709375 98.54296875 31.296875 C103.80853728 34.94677624 107.67650208 38.7730991 111.5625 43.8125 C112.03107422 44.40353516 112.49964844 44.99457031 112.98242188 45.60351562 C116.06219108 49.55337348 118.74588048 53.51931744 121 58 C120.67 58.66 120.34 59.32 120 60 C119.41992188 59.50628906 118.83984375 59.01257813 118.2421875 58.50390625 C112.37108278 53.56747392 112.37108278 53.56747392 105 52 C104.67 52.66 104.34 53.32 104 54 C104.57234375 54.24492188 105.1446875 54.48984375 105.734375 54.7421875 C108.38024402 56.21110099 110.14853139 57.95348244 112.25 60.125 C112.95640625 60.84945312 113.6628125 61.57390625 114.390625 62.3203125 C114.92171875 62.87460938 115.4528125 63.42890625 116 64 C115.01 64.33 114.02 64.66 113 65 C113.63615234 65.71349609 113.63615234 65.71349609 114.28515625 66.44140625 C125.8340085 80.22388267 133.80295344 100.93354756 133 119 C129.05860922 117.33248852 126.2107188 114.77289351 123 112 C123.16113281 112.49628906 123.32226562 112.99257812 123.48828125 113.50390625 C124.20035491 116.97730371 124.18433431 120.40775684 124.1875 123.9375 C124.19974609 124.62134766 124.21199219 125.30519531 124.22460938 126.00976562 C124.2368568 130.48824217 123.76798922 134.71161576 123.0234375 139.12890625 C121.83007199 146.41804007 121.59319074 153.62557502 121.4375 161 C121.37746852 163.54175852 121.31381571 166.08343476 121.24609375 168.625 C121.21020142 170.28402344 121.21020142 170.28402344 121.17358398 171.9765625 C121.01433334 174.75034593 120.62330048 177.29704257 120 180 C117.47650757 176.87567603 115.72743854 173.61939504 114 170 C113.67 170 113.34 170 113 170 C112.87044922 170.93005859 112.87044922 170.93005859 112.73828125 171.87890625 C110.01983079 189.0126261 102.52371421 209.47628579 90 222 C90.74596963 214.5403037 92.36746129 207.31048782 94 200 C93.34 200 92.68 200 92 200 C91.72671875 200.59683594 91.4534375 201.19367188 91.171875 201.80859375 C90.03904698 203.92698214 88.89550769 205.33294756 87.25 207.0625 C84.73401955 209.9111221 82.98191562 212.74481241 81.25 216.125 C75.99281775 226.14521682 68.29264394 234.72606035 61.11328125 243.41015625 C58.43738471 246.68948972 55.86601721 250.04283373 53.3125 253.41796875 C52.879375 253.94003906 52.44625 254.46210938 52 255 C51.67 255 51.34 255 51 255 C51.14298148 252.52064036 51.28933193 250.04155092 51.4375 247.5625 C51.47681641 246.87478516 51.51613281 246.18707031 51.55664062 245.47851562 C51.87008962 240.29455153 52.39524427 235.1582106 53 230 C42.94402206 243.55413536 42.94402206 243.55413536 34.26953125 258.0078125 C33.85058594 258.66523438 33.43164062 259.32265625 33 260 C32.34 260 31.68 260 31 260 C30.67 255.71 30.34 251.42 30 247 C28.865625 248.155 27.73125 249.31 26.5625 250.5 C25.39602268 251.687686 24.21292648 252.85979093 23 254 C22.67 254 22.34 254 22 254 C21.67 248.39 21.34 242.78 21 237 C19.35 239.64 17.7 242.28 16 245 C13 244 13 244 9 238 C8.67 243.94 8.34 249.88 8 256 C6.35 254.35 4.7 252.7 3 251 C1.35135455 249.64444707 -0.31003995 248.30368347 -2 247 C-1.505 248.485 -1.505 248.485 -1 250 C-0.9314505 251.89470816 -0.91519628 253.7916834 -0.9375 255.6875 C-0.94652344 256.68136719 -0.95554687 257.67523438 -0.96484375 258.69921875 C-0.97644531 259.45847656 -0.98804688 260.21773438 -1 261 C-5.22539204 256.83924111 -9.27629003 252.5313099 -13.3125 248.1875 C-13.95767578 247.49462891 -14.60285156 246.80175781 -15.26757812 246.08789062 C-16.84587161 244.39268651 -18.42332302 242.69670746 -20 241 C-21.33901792 242.11126659 -21.33901792 242.11126659 -21.09765625 244.94140625 C-21.08605469 246.13636719 -21.07445312 247.33132813 -21.0625 248.5625 C-21.05347656 249.76003906 -21.04445313 250.95757812 -21.03515625 252.19140625 C-21.02355469 253.11824219 -21.01195312 254.04507812 -21 255 C-22.1282554 253.8717446 -23.25614956 252.74312686 -24.3828125 251.61328125 C-25.53917449 250.4597124 -26.70129744 249.31190691 -27.8671875 248.16796875 C-32.47475674 243.62314851 -36.79268698 238.91517848 -41 234 C-41.50273437 233.43667969 -42.00546875 232.87335938 -42.5234375 232.29296875 C-47.17667527 227.03653349 -51.85080096 221.29839807 -55 215 C-55.15540465 219.35133033 -55.11455043 223.04737697 -53.9375 227.25 C-53.05319814 230.78720743 -52.97119449 231.74811124 -54 235 C-65.11627554 220.24728325 -74.24134709 204.23555174 -83 188 C-83 194.27 -83 200.54 -83 207 C-92.79550209 193.93933055 -95.30302938 175.90835442 -96 160 C-97.65 163.3 -99.3 166.6 -101 170 C-101.33 170 -101.66 170 -102 170 C-102.02714434 167.2915983 -102.04690846 164.58347279 -102.0625 161.875 C-102.07087891 161.11445313 -102.07925781 160.35390625 -102.08789062 159.5703125 C-102.10651157 155.25025378 -101.79562575 151.26184028 -101 147 C-100.78746997 143.54326151 -100.74939348 140.14055567 -101.49609375 136.7421875 C-102.14338634 133.21971154 -102.19083831 129.7561496 -102.1875 126.1875 C-102.18814453 125.47916016 -102.18878906 124.77082031 -102.18945312 124.04101562 C-102.13868469 119.02417101 -101.58080982 114.74242947 -100 110 C-101.08518111 110.91447846 -102.16804738 111.83170407 -103.25 112.75 C-103.85328125 113.26046875 -104.4565625 113.7709375 -105.078125 114.296875 C-107.1368643 116.12128625 -109.07241968 118.03830322 -111 120 C-110.74510266 106.46726854 -106.96457197 94.1001711 -101 82 C-100.54753906 81.02289063 -100.09507813 80.04578125 -99.62890625 79.0390625 C-96.99419874 73.49591164 -94.37372775 68.92180944 -90.171875 64.44921875 C-88.56309565 62.45969495 -88.45698952 60.48080023 -88 58 C-85.4375 55.1875 -85.4375 55.1875 -83 53 C-85.09495303 51.93956349 -85.09495303 51.93956349 -88 52 C-90.24345802 53.35551192 -92.20675805 54.89083358 -94.23046875 56.5546875 C-96 58 -96 58 -98 59 C-96.998768 53.86724746 -93.99768534 50.1849524 -91 46 C-90.42121094 45.17757812 -89.84242187 44.35515625 -89.24609375 43.5078125 C-84.0546941 36.54981965 -78.09164463 31.8932348 -71 27 C-77.04801071 27.54981916 -82.30601106 28.90429574 -88 31 C-74.2628217 14.44493898 -59.83929433 4.10708288 -38 2 C-38 1.34 -38 0.68 -38 0 C-44.93 -0.99 -51.86 -1.98 -59 -3 C-59 -3.66 -59 -4.32 -59 -5 C-38.16308759 -13.60521456 -19.48737603 -11.00831996 0 0 Z " fill="#101010" transform="translate(196,36)"/>
<path d="M0 0 C3.93480958 2.61086189 7.08768974 6.02090587 10.3125 9.4375 C11.19035156 10.14390625 12.06820312 10.8503125 12.97265625 11.578125 C16.22745862 15.55561304 16.08949857 18.75218781 16.125 23.75 C16.15013672 24.58595703 16.17527344 25.42191406 16.20117188 26.28320312 C16.2597699 28.33413409 16.28906493 30.38586593 16.3125 32.4375 C16.34988281 31.17292969 16.38726562 29.90835938 16.42578125 28.60546875 C16.49143833 26.9452827 16.55788576 25.28512778 16.625 23.625 C16.64755859 22.79162109 16.67011719 21.95824219 16.69335938 21.09960938 C16.72880859 20.29716797 16.76425781 19.49472656 16.80078125 18.66796875 C16.84005737 17.56038208 16.84005737 17.56038208 16.88012695 16.43041992 C17.42253906 13.93030135 18.31084805 12.99004568 20.3125 11.4375 C20.9725 11.4375 21.6325 11.4375 22.3125 11.4375 C22.57160156 10.85226563 22.83070313 10.26703125 23.09765625 9.6640625 C24.39868287 7.27954426 25.81121006 5.70542609 27.75 3.8125 C28.64525391 2.92691406 28.64525391 2.92691406 29.55859375 2.0234375 C34.28249517 -2.24806356 38.01418978 -1.9810135 44.140625 -1.87890625 C49.39595696 -1.35466747 51.91453429 0.86478858 55.3125 4.6875 C56.44716326 6.24766198 57.57488403 7.813084 58.6796875 9.39453125 C61.85361175 13.82651356 64.70474676 16.43244354 69.3125 19.4375 C75.82335792 26.50643146 76.96508643 38.29915077 76.6640625 47.58984375 C75.33531997 58.35265826 71.3042257 68.44991145 65.3125 77.4375 C65.3125 75.1275 65.3125 72.8175 65.3125 70.4375 C64.93738281 71.29214844 64.56226563 72.14679688 64.17578125 73.02734375 C63.66402344 74.13207031 63.15226562 75.23679687 62.625 76.375 C62.12613281 77.47714844 61.62726563 78.57929688 61.11328125 79.71484375 C59.3125 82.4375 59.3125 82.4375 56.60546875 83.31640625 C55.84878906 83.35636719 55.09210938 83.39632812 54.3125 83.4375 C53.9721875 82.68726563 53.631875 81.93703125 53.28125 81.1640625 C50.1772761 74.60939422 46.77807235 69.09514227 42.046875 63.59375 C38.18368574 58.79086605 37.92333055 55.46962646 38.3125 49.4375 C40.3125 47.4375 40.3125 47.4375 42.703125 47.3046875 C44.11851562 47.30855469 44.11851562 47.30855469 45.5625 47.3125 C49.83068218 47.04541638 49.83068218 47.04541638 53.23046875 44.66796875 C54.76682927 42.54243169 54.76682927 42.54243169 55.99609375 40.34765625 C57.3125 38.4375 57.3125 38.4375 61.3125 36.4375 C56.0325 36.1075 50.7525 35.7775 45.3125 35.4375 C45.3125 34.7775 45.3125 34.1175 45.3125 33.4375 C45.9725 33.4375 46.6325 33.4375 47.3125 33.4375 C47.6425 32.4475 47.9725 31.4575 48.3125 30.4375 C47.57 30.788125 46.8275 31.13875 46.0625 31.5 C43.04866686 32.52744312 42.15469328 32.7697781 39.3125 31.4375 C36.5625 28.875 36.5625 28.875 34.3125 26.4375 C34.80363281 27.51402832 34.80363281 27.51402832 35.3046875 28.61230469 C36.35069707 31.54457763 36.51899203 33.54958714 36.4375 36.640625 C36.42203125 37.62160156 36.4065625 38.60257813 36.390625 39.61328125 C36.33893849 41.64714554 36.28686129 43.68099994 36.234375 45.71484375 C36.0817541 55.44442631 36.74125042 62.52981044 43.25 70 C50.27652026 78.70253657 52.23522187 85.28854479 51.796875 96.50390625 C51.10518188 102.12112376 49.18816659 106.30962083 45.3125 110.4375 C40.16396221 114.18881947 35.49083847 114.36209051 29.3125 113.4375 C25.08936432 111.75792231 22.18337042 109.49887332 19.3125 106 C18.03339676 102.72229795 17.6833696 100.9326689 18.3125 97.4375 C19.88679632 94.53340034 21.63848139 92.38866399 24.3125 90.4375 C26.70365728 89.85597705 28.80447652 89.68614923 31.26171875 89.703125 C33.38880585 89.59142256 33.38880585 89.59142256 35.0703125 88.18359375 C36.60642346 86.02434343 36.62883743 84.8696944 36.5 82.25 C36.438125 80.991875 36.37625 79.73375 36.3125 78.4375 C34.9925 80.4175 33.6725 82.3975 32.3125 84.4375 C31.76142578 84.27523926 31.21035156 84.11297852 30.64257812 83.94580078 C28.0415972 83.37840322 25.69306746 83.30796099 23.03125 83.3046875 C22.02449219 83.30339844 21.01773438 83.30210937 19.98046875 83.30078125 C18.93503906 83.30464844 17.88960937 83.30851562 16.8125 83.3125 C15.76707031 83.30863281 14.72164062 83.30476563 13.64453125 83.30078125 C12.13439453 83.30271484 12.13439453 83.30271484 10.59375 83.3046875 C9.67658203 83.30581543 8.75941406 83.30694336 7.81445312 83.30810547 C5.50170985 83.42771456 3.52720449 83.78539257 1.3125 84.4375 C-0.84127564 81.81551226 -2.08822174 79.79345828 -2.6875 76.4375 C-3.80257674 81.12082229 -3.54726188 83.99473551 -1.6875 88.4375 C-0.08257663 90.04242337 1.92057267 89.90465048 4.125 90.25 C8.34238015 91.05130223 10.71494268 91.8235072 13.3125 95.4375 C14.88705739 98.58661479 14.66049118 100.95758816 14.3125 104.4375 C11.34342126 108.97844395 8.4712003 111.71793323 3.3125 113.4375 C-1.29703562 114.12788431 -5.64670858 114.54462012 -9.84765625 112.265625 C-14.39279631 108.52143319 -17.52524609 104.26934043 -18.6875 98.4375 C-19.09172109 91.77255231 -18.97840941 85.73750088 -16.6875 79.4375 C-16.0275 79.4375 -15.3675 79.4375 -14.6875 79.4375 C-14.61402344 78.73882812 -14.54054687 78.04015625 -14.46484375 77.3203125 C-13.46060984 73.59606816 -11.62219696 71.34132107 -9.25 68.3125 C-4.3691909 62.02933966 -2.37707186 58.75326904 -2.5 50.75 C-2.50064453 49.97205078 -2.50128906 49.19410156 -2.50195312 48.39257812 C-2.5306374 44.57119473 -2.72694419 40.91366001 -3.3203125 37.13671875 C-3.68691844 33.44335888 -3.58693379 32.05472098 -1.75 28.9375 C-1.17958984 27.93203125 -1.17958984 27.93203125 -0.59765625 26.90625 C-0.29730469 26.4215625 0.00304687 25.936875 0.3125 25.4375 C-0.1721875 25.96601562 -0.656875 26.49453125 -1.15625 27.0390625 C-6.56602238 32.42802806 -6.56602238 32.42802806 -10 32.45703125 C-12.1875 31.875 -12.1875 31.875 -15.6875 30.4375 C-14.2025 32.9125 -14.2025 32.9125 -12.6875 35.4375 C-20.6075 35.9325 -20.6075 35.9325 -28.6875 36.4375 C-27.594375 37.159375 -26.50125 37.88125 -25.375 38.625 C-22.83100186 40.30499877 -21.75551981 41.30481208 -20.33984375 44.06640625 C-18.87453729 46.73292867 -18.87453729 46.73292867 -15.8046875 47.109375 C-14.73476562 47.13515625 -13.66484375 47.1609375 -12.5625 47.1875 C-6.74209057 47.38290943 -6.74209057 47.38290943 -5.6875 48.4375 C-4.80691174 55.03469399 -6.01219479 59.95516973 -9.6875 65.4375 C-11.67541062 67.98349208 -13.71871104 70.47511628 -15.78125 72.9609375 C-18.33136954 76.27400263 -19.99339495 79.62576364 -21.6875 83.4375 C-23.6675 83.4375 -25.6475 83.4375 -27.6875 83.4375 C-28.6775 80.4675 -29.6675 77.4975 -30.6875 74.4375 C-31.0175 74.4375 -31.3475 74.4375 -31.6875 74.4375 C-31.6875 77.4075 -31.6875 80.3775 -31.6875 83.4375 C-33.46308416 79.88633168 -34.76936044 76.49351549 -36.0625 72.75 C-38.27528773 66.47170581 -40.71070978 60.39108044 -43.6875 54.4375 C-43.89505783 49.10204284 -43.79738954 43.77499175 -43.6875 38.4375 C-43.67074219 37.61765625 -43.65398437 36.7978125 -43.63671875 35.953125 C-43.13764355 29.05162793 -40.27321984 22.77183041 -35.15625 18.15234375 C-33.24973767 16.66746396 -31.33152724 15.19749102 -29.40234375 13.7421875 C-26.62001563 11.38021111 -24.85811192 9.11004393 -22.875 6.0625 C-17.70048249 -1.79690868 -8.69315309 -4.54236828 0 0 Z " fill="#F6F6F6" transform="translate(190.6875,82.5625)"/>
<path d="M0 0 C11.57274934 -0.78459318 21.95864633 2.75864123 31 10 C31.66 10.66 32.32 11.32 33 12 C33.763125 11.87625 34.52625 11.7525 35.3125 11.625 C38 12 38 12 39.4375 13.7734375 C40.69940645 15.81686557 41.88450964 17.87344816 43 20 C44.32 19.01 45.64 18.02 47 17 C47.495 20.465 47.495 20.465 48 24 C48.66 24 49.32 24 50 24 C50.226875 23.13375 50.45375 22.2675 50.6875 21.375 C52.27881707 17.28304181 53.93550148 15.13746278 57 12 C57.60714844 11.85949219 58.21429688 11.71898437 58.83984375 11.57421875 C61.86498114 10.7700683 63.73813926 9.05479937 66.1875 7.125 C75.09353258 0.55149976 82.02654596 -0.50132531 93 0 C91.8553125 0.8971875 91.8553125 0.8971875 90.6875 1.8125 C88.64621657 3.47400977 86.83099472 5.12604939 85 7 C96.03014449 11.36630774 96.03014449 11.36630774 107.4375 14.5625 C113.97036977 16.06871418 120.18432176 18.27648264 124 24 C122.96101562 24.09796875 121.92203125 24.1959375 120.8515625 24.296875 C106.62633185 25.76261871 96.55422898 28.84147084 87.10546875 40.296875 C85.68778694 42.16941023 84.31807918 44.05647933 83 46 C82.05125 45.67 81.1025 45.34 80.125 45 C75.44552744 43.6355542 70.83176241 43.82500659 66 44 C67.50460615 37.59402535 68.90757948 32.22136411 73 27 C71.35 27.66 69.7 28.32 68 29 C69 27 70 25 71 23 C60.74958909 29.86829563 55.74954718 37.83019036 52.23046875 49.56640625 C51.98941406 50.36949219 51.74835938 51.17257813 51.5 52 C51.3040625 52.721875 51.108125 53.44375 50.90625 54.1875 C49.7236223 56.55275541 48.4110241 57.05140035 46 58 C43.81548547 52.90602143 42.55701446 47.63833004 41.1953125 42.27734375 C39.95700769 38.88212239 38.73739209 37.29643144 36 35 C36.495 37.97 36.495 37.97 37 41 C36.360625 40.319375 35.72125 39.63875 35.0625 38.9375 C27.42154639 31.38215932 18.64540209 25.33255897 8 23 C8.42410156 23.46148437 8.84820312 23.92296875 9.28515625 24.3984375 C22 38.53846154 22 38.53846154 22 43 C18.37 43.99 14.74 44.98 11 46 C10.50371094 45.34773438 10.00742188 44.69546875 9.49609375 44.0234375 C7.38160668 41.30309171 5.21075249 38.64260199 3 36 C2.50757813 35.39800781 2.01515625 34.79601562 1.5078125 34.17578125 C-3.47687316 29.04290223 -10.43199424 27.83002645 -17.13671875 26.078125 C-19.97860047 25.33319835 -22.38433352 24.34765017 -25 23 C-25.99 23 -26.98 23 -28 23 C-28.99 22.67 -29.98 22.34 -31 22 C-23.00158892 16.15191552 -14.59594728 13.99957935 -5.17382812 11.58349609 C-0.37339094 10.29496904 4.31185129 8.64544827 9 7 C6.79323881 5.311922 4.6470842 3.79145885 2.25 2.375 C1.13625 1.694375 1.13625 1.694375 0 1 C0 0.67 0 0.34 0 0 Z " fill="#F6F6F6" transform="translate(160,32)"/>
<path d="M0 0 C0.66 0.33 1.32 0.66 2 1 C3.41027539 16.92044217 -5.47783944 28.40332135 -14 41 C-11.05399349 38.69639354 -8.27966299 36.38257765 -5.6875 33.6875 C-2.54549623 30.48361869 0.76476476 27.55712713 4.203125 24.67578125 C6.09165581 23.02038142 6.09165581 23.02038142 7.609375 20.79296875 C8.06828125 20.20128906 8.5271875 19.60960937 9 19 C9.66 19 10.32 19 11 19 C11.96057862 28.60578623 7.77813708 37.33001804 3.75 45.875 C1.86241502 49.93178545 1.32371395 53.54893325 1 58 C1.70125 56.948125 2.4025 55.89625 3.125 54.8125 C6.40876352 50.41035325 10.24540159 46.73195141 14.25 43 C14.87664551 42.4119458 15.50329102 41.8238916 16.14892578 41.21801758 C20.74576252 37 20.74576252 37 23 37 C22.80664062 37.60585937 22.61328125 38.21171875 22.4140625 38.8359375 C16.57712818 57.61815191 17.74753828 71.50036259 24 90 C23.98428955 89.28569824 23.9685791 88.57139648 23.95239258 87.83544922 C23.41079926 59.46692855 23.41079926 59.46692855 27 50 C27.66 49.67 28.32 49.34 29 49 C29.98831156 55.53686384 30.11883529 61.89577115 30.0625 68.5 C30.05798828 69.51320313 30.05347656 70.52640625 30.04882812 71.5703125 C30.03714593 74.04693827 30.02076582 76.52343657 30 79 C30.66 79 31.32 79 32 79 C32.24234375 79.72445312 32.4846875 80.44890625 32.734375 81.1953125 C36.51729715 92.10758792 42.63381235 99.34589432 50.5546875 107.625 C54.35372065 111.77798034 58 118.21778875 58 124 C53.64352355 122.55049595 50.68242711 120.32252888 47.1875 117.375 C45.72376953 116.14910156 45.72376953 116.14910156 44.23046875 114.8984375 C43.49441406 114.27195312 42.75835937 113.64546875 42 113 C42.37253906 113.68707031 42.74507812 114.37414062 43.12890625 115.08203125 C43.60199219 115.98308594 44.07507813 116.88414062 44.5625 117.8125 C45.03816406 118.70582031 45.51382813 119.59914063 46.00390625 120.51953125 C47 123 47 123 46 126 C41.43909229 121.51105928 37.06508074 116.85457223 32.6875 112.1875 C31.94693359 111.39923828 31.20636719 110.61097656 30.44335938 109.79882812 C28.6281924 107.8665536 26.81376068 105.93359446 25 104 C25.23396484 105.12148438 25.23396484 105.12148438 25.47265625 106.265625 C25.66730469 107.25046875 25.86195313 108.2353125 26.0625 109.25 C26.35833984 110.71179688 26.35833984 110.71179688 26.66015625 112.203125 C26.98397535 114.868119 26.85503199 116.48871723 26 119 C25.59910156 118.45472656 25.19820312 117.90945313 24.78515625 117.34765625 C21.55973426 113.06903524 18.26345317 109.19305351 14.375 105.5 C7.83047473 98.95547473 4.80015266 94.32407931 4.66821289 84.94897461 C4.69629131 81.29273737 4.82271241 77.65212443 5 74 C3.68 75.98 2.36 77.96 1 80 C0.34 79.67 -0.32 79.34 -1 79 C-1 77.02 -1 75.04 -1 73 C-1.99 73 -2.98 73 -4 73 C-4.33 79.6 -4.66 86.2 -5 93 C-5.66 93 -6.32 93 -7 93 C-13.28089068 81.67196503 -16.25846493 72.98665894 -15 60 C-17.27521866 62.16687491 -19.15794162 64.45620509 -21 67 C-21.80539308 43.37513641 -15.36809891 18.62193093 0 0 Z " fill="#F2F2F2" transform="translate(141,153)"/>
<path d="M0 0 C11.01556898 9.38363283 15.70840347 28.20352696 17 42 C17.24628383 46.39670184 17.33854635 50.78439786 17.375 55.1875 C17.39590698 56.80833496 17.39590698 56.80833496 17.41723633 58.46191406 C17.36171173 67.93138213 16.22839019 76.92699248 11 85 C8.42054787 82.0045072 6.82639007 79.85648699 6 76 C5.01 75.505 5.01 75.505 4 75 C4.33 75.99 4.66 76.98 5 78 C6.21398707 86.95891723 3.86124636 93.50301457 -1 101 C-2.96593861 103.42164469 -5.01326826 105.69520308 -7.1640625 107.953125 C-9.67386343 110.75128604 -11.29568889 113.66239073 -13 117 C-13.33 117 -13.66 117 -14 117 C-13.9278125 115.71867187 -13.855625 114.43734375 -13.78125 113.1171875 C-13.23494032 103.06353126 -12.84993242 93.0712022 -13 83 C-13.29390625 84.00675781 -13.5878125 85.01351562 -13.890625 86.05078125 C-17.46178651 97.49970745 -22.88705717 106.91476523 -29.55908203 116.83251953 C-31.78107505 120.17492109 -33.89416056 123.58360228 -36 127 C-37.41687119 122.74938644 -36.19320039 120.28148375 -35 116 C-35.63808594 116.5775 -36.27617187 117.155 -36.93359375 117.75 C-37.75988281 118.4925 -38.58617187 119.235 -39.4375 120 C-40.26121094 120.7425 -41.08492187 121.485 -41.93359375 122.25 C-44 124 -44 124 -45 124 C-45.4878576 117.65785115 -44.28542015 111.77515304 -40.1953125 106.80859375 C-38.79993876 105.33686938 -37.40276352 103.86685121 -36.00390625 102.3984375 C-29.3450667 94.42859835 -27.96741037 85.29338534 -27.5625 75.3125 C-27.25255686 68.68922268 -26.56413128 62.46507596 -25 56 C-20.98168343 62.02747486 -20.66830624 68.94842908 -20.375 76 C-20.33632812 76.77472656 -20.29765625 77.54945313 -20.2578125 78.34765625 C-20.16478643 80.23143415 -20.08136825 82.11568256 -20 84 C-15.8736191 72.0445482 -14.17738733 60.60333832 -17.5546875 48.140625 C-18.38749549 44.1373024 -18.1528656 40.06792353 -18 36 C-14.80547812 39.0282911 -12.22231424 42.26283721 -9.625 45.8125 C-3.51520608 54.75961803 -3.51520608 54.75961803 5 61 C4.48050781 60.05640625 3.96101563 59.1128125 3.42578125 58.140625 C-9.21589339 34.95360334 -9.21589339 34.95360334 -9 22 C-2.33333333 28.66666667 4.33333333 35.33333333 11 42 C10.48050781 41.05640625 9.96101563 40.1128125 9.42578125 39.140625 C-3.72593379 15.04597624 -3.72593379 15.04597624 -2 4 C-0.97265625 1.6875 -0.97265625 1.6875 0 0 Z " fill="#F3F3F3" transform="translate(270,151)"/>
<path d="M0 0 C11.24527901 2.46504028 18.25339063 8.80503381 26 17 C22.06329512 18.31223496 19.87511856 17.24296256 16 16 C17.98 17.65 19.96 19.3 22 21 C21.01 22.32 20.02 23.64 19 25 C20.65 26.65 22.3 28.3 24 30 C21.525 31.485 21.525 31.485 19 33 C19.49628906 33.3403125 19.99257813 33.680625 20.50390625 34.03125 C32.71432397 42.74304708 39.47482047 54.45553463 44 68.5625 C44.32991943 69.58053711 44.32991943 69.58053711 44.66650391 70.61914062 C45.79862705 74.39730556 45.98538701 76.05845194 45 80 C41.37 76.37 37.74 72.74 34 69 C34.433125 70.03898437 34.86625 71.07796875 35.3125 72.1484375 C38.42094154 79.84658625 41.09885095 86.53477784 40 95 C37.34697146 92.34697146 35.99847122 89.20773563 34.375 85.875 C34.05015625 85.21628906 33.7253125 84.55757813 33.390625 83.87890625 C32.59013423 82.25438086 31.79458899 80.62742022 31 79 C31 82.11227195 31.45627049 84.94152152 32 88 C29.28853355 84.6720191 26.76733144 81.27013565 24.3125 77.75 C19.30665179 70.84025775 13.52779573 65.09073373 7 59.625 C1.98602383 55.3489679 -1.95711657 50.17526513 -6 45 C-5.67 44.34 -5.34 43.68 -5 43 C5.75256524 47.41530457 14.56645395 52.97387163 23 61 C20.6946515 51.0101565 13.28171209 45.04035383 5.16015625 39.53125 C4.44730469 39.0259375 3.73445313 38.520625 3 38 C3 37.67 3 37.34 3 37 C8.445 36.505 8.445 36.505 14 36 C9.71 34.02 5.42 32.04 1 30 C2.12975263 27.17561843 3.30535369 24.36580387 4.625 21.625 C6.35667556 17.05967352 6.99956131 13.53879187 5.16796875 8.88671875 C3.63905289 5.75444544 1.93531597 2.90297396 0 0 Z " fill="#F0F0F0" transform="translate(275,63)"/>
<path d="M0 0 C-1.26953125 1.46484375 -2.5390625 2.9296875 -3.80859375 4.39453125 C-7.09141985 8.81827396 -6.54956375 14.77557578 -6 20 C-5.14171645 22.2637697 -4.15150067 24.19394164 -2.875 26.24609375 C-2 28 -2 28 -2 32 C-3.546875 32.433125 -3.546875 32.433125 -5.125 32.875 C-8.45007997 33.82308798 -11.72751453 34.88256594 -15 36 C-15 36.66 -15 37.32 -15 38 C-11.7 38 -8.4 38 -5 38 C-7.60014522 40.72340267 -10.20898008 42.88321199 -13.3125 45 C-18.9316248 49.25155635 -21.84061784 54.81329989 -25 61 C-24.34 61 -23.68 61 -23 61 C-22.773125 60.42121094 -22.54625 59.84242187 -22.3125 59.24609375 C-18.20462774 52.21625284 -7.55017647 46.67992612 0 44 C2.7890625 43.875 2.7890625 43.875 5 44 C5 44.66 5 45.32 5 46 C4.34 46 3.68 46 3 46 C2.72414062 46.59167969 2.44828125 47.18335938 2.1640625 47.79296875 C-0.42144795 52.69502715 -4.37504464 56.55725262 -8.5625 60.125 C-12.45562223 63.44582573 -16.11551857 66.96409409 -19.75 70.5625 C-20.30502197 71.10471191 -20.86004395 71.64692383 -21.43188477 72.20556641 C-24.80647646 75.57148568 -27.48870353 78.94657244 -30 83 C-31.0169313 80.34501768 -31.13022151 79.30844625 -30.00390625 76.640625 C-29.52824219 75.85171875 -29.05257812 75.0628125 -28.5625 74.25 C-28.08941406 73.45078125 -27.61632812 72.6515625 -27.12890625 71.828125 C-26.75636719 71.22484375 -26.38382813 70.6215625 -26 70 C-31.83353366 77.90132802 -36.42187911 85.85231538 -40 95 C-40.33 95 -40.66 95 -41 95 C-41.50670548 85.87930134 -38.75055886 78.21550989 -35 70 C-36.06541016 70.97453125 -36.06541016 70.97453125 -37.15234375 71.96875 C-38.07144531 72.8040625 -38.99054688 73.639375 -39.9375 74.5 C-40.85402344 75.3353125 -41.77054687 76.170625 -42.71484375 77.03125 C-45 79 -45 79 -46 79 C-44.14943089 62.34487803 -37.28051114 47.54183378 -25 36 C-23.68538994 34.97551078 -22.3578736 33.96641454 -21 33 C-22.32 32.34 -23.64 31.68 -25 31 C-23.62845496 28.04590299 -22.01136276 25.55991624 -20 23 C-21.32 23 -22.64 23 -24 23 C-22.46075386 18.38226158 -19.13050979 17.42585496 -15 15 C-18.63 15.66 -22.26 16.32 -26 17 C-20.44595773 8.74014227 -10.84035024 -0.95650149 0 0 Z " fill="#F0F0F0" transform="translate(140,63)"/>
<path d="M0 0 C13.23892758 11.07603288 25.51766282 22.69593982 32 39 C32.34933594 39.77988281 32.69867188 40.55976563 33.05859375 41.36328125 C37.3848985 51.29951963 38.38113023 61.24365798 38 72 C35.06077639 69.14021487 32.41317403 66.31192213 30 63 C30.02618408 63.59312988 30.05236816 64.18625977 30.0793457 64.79736328 C30.55533717 77.25026396 30.44008581 87.61467756 25 99 C24.67 99 24.34 99 24 99 C23.98018066 98.39115967 23.96036133 97.78231934 23.93994141 97.1550293 C23.53127769 81.45358044 23.53127769 81.45358044 21 66 C20.73316406 64.75089844 20.46632813 63.50179687 20.19140625 62.21484375 C17.50732683 50.09616758 12.86065179 40.32998724 5.54296875 30.25 C0.68622856 23.1677662 -0.16043297 16.11726863 -0.0625 7.6875 C-0.05798828 6.94693359 -0.05347656 6.20636719 -0.04882812 5.44335938 C-0.03712175 3.62887101 -0.01918898 1.81442466 0 0 Z " fill="#F4F4F4" transform="translate(273,121)"/>
<path d="M0 0 C5.17163306 3.23049956 7.40665936 6.13553309 8.8125 12.125 C9.00457031 13.13820312 9.19664062 14.15140625 9.39453125 15.1953125 C9.94341759 18.30084293 9.94341759 18.30084293 12 22 C12.33 18.37 12.66 14.74 13 11 C20.46575342 12.49315068 20.46575342 12.49315068 23 14 C24 17.125 24 17.125 24.3984375 18.98046875 C25.50798982 22.70539439 27.82963577 25.81072432 30 29 C29.93039063 28.43152344 29.86078125 27.86304688 29.7890625 27.27734375 C29.46123065 22.60183707 29.69478972 19.67264735 32.6875 15.9375 C34.9248131 13.63110122 35.61711967 13.0582644 38.875 12.5625 C39.57625 12.706875 40.2775 12.85125 41 13 C43.02907167 16.3146667 43.12742133 18.4315979 42.625 22.25 C42.51414063 23.14203125 42.40328125 24.0340625 42.2890625 24.953125 C42.14597656 25.96632812 42.14597656 25.96632812 42 27 C45.57953041 22.12888645 48.36759498 17.39803585 50.5625 11.75 C52.41605977 7.06228756 53.97058036 4.04929054 58 1 C58.66 1 59.32 1 60 1 C60.72276213 14.09002525 59.51962089 20.96209877 50.6875 31.0625 C47.76278521 34.20656839 44.75480404 37.24564436 41.6875 40.25 C38.59506156 43.28688565 36.22736419 46.28772636 34 50 C5.38928224 26.06896081 5.38928224 26.06896081 0 10 C-0.1953125 7.32421875 -0.1953125 7.32421875 -0.125 4.6875 C-0.10695312 3.80449219 -0.08890625 2.92148438 -0.0703125 2.01171875 C-0.04710937 1.34785156 -0.02390625 0.68398437 0 0 Z " fill="#F1F1F1" transform="translate(177,222)"/>
<path d="M0 0 C0.33 0 0.66 0 1 0 C1.78229861 15.90673846 -1.64799214 27.49385436 -11.7265625 40.171875 C-22.92771512 54.59527701 -26.48432955 73.34173192 -29 91 C-29.33 91 -29.66 91 -30 91 C-31.14174072 86.42390318 -31.19138927 81.99810336 -31.1875 77.3125 C-31.18814453 76.51537598 -31.18878906 75.71825195 -31.18945312 74.89697266 C-31.13746523 69.08732484 -30.57992393 63.61437253 -29 58 C-29.7425 58.763125 -30.485 59.52625 -31.25 60.3125 C-33.4263323 62.4393702 -35.52167796 64.2559956 -38 66 C-38.86649106 48.67017875 -31.06985383 32.03368396 -19.71875 19.21875 C-13.83104614 12.75422644 -7.79488867 6.5220709 -1 1 C-0.67 0.67 -0.34 0.34 0 0 Z " fill="#F7F7F7" transform="translate(139,122)"/>
<path d="M0 0 C5.04336973 1.45199619 10.3311709 1.50042029 15.55078125 1.734375 C14.45149175 8.04559003 12.96940183 13.79776084 10.55078125 19.734375 C9.89078125 19.404375 9.23078125 19.074375 8.55078125 18.734375 C8.22078125 19.394375 7.89078125 20.054375 7.55078125 20.734375 C5.07578125 19.744375 5.07578125 19.744375 2.55078125 18.734375 C2.11765625 20.1884375 2.11765625 20.1884375 1.67578125 21.671875 C0.55078125 24.734375 0.55078125 24.734375 -1.44921875 25.734375 C-2.10921875 24.414375 -2.76921875 23.094375 -3.44921875 21.734375 C-4.43921875 23.714375 -5.42921875 25.694375 -6.44921875 27.734375 C-7.10921875 27.734375 -7.76921875 27.734375 -8.44921875 27.734375 C-11.44921875 21.984375 -11.44921875 21.984375 -11.44921875 19.734375 C-12.10921875 19.734375 -12.76921875 19.734375 -13.44921875 19.734375 C-13.75859375 20.683125 -14.06796875 21.631875 -14.38671875 22.609375 C-15.44921875 25.734375 -15.44921875 25.734375 -16.44921875 27.734375 C-17.10921875 27.734375 -17.76921875 27.734375 -18.44921875 27.734375 C-18.77921875 25.424375 -19.10921875 23.114375 -19.44921875 20.734375 C-19.90296875 21.188125 -20.35671875 21.641875 -20.82421875 22.109375 C-22.03255208 23.31770833 -23.24088542 24.52604167 -24.44921875 25.734375 C-25.43921875 23.754375 -26.42921875 21.774375 -27.44921875 19.734375 C-28.10921875 19.734375 -28.76921875 19.734375 -29.44921875 19.734375 C-30.10921875 20.394375 -30.76921875 21.054375 -31.44921875 21.734375 C-31.44921875 20.084375 -31.44921875 18.434375 -31.44921875 16.734375 C-32.10921875 16.734375 -32.76921875 16.734375 -33.44921875 16.734375 C-33.77921875 17.724375 -34.10921875 18.714375 -34.44921875 19.734375 C-34.77921875 19.734375 -35.10921875 19.734375 -35.44921875 19.734375 C-36.09587538 17.48461148 -36.74151398 15.23455533 -37.38671875 12.984375 C-37.74636719 11.73140625 -38.10601562 10.4784375 -38.4765625 9.1875 C-39.17476024 6.70875781 -39.84865601 4.23777338 -40.44921875 1.734375 C-39.39863281 1.69699219 -38.34804687 1.65960938 -37.265625 1.62109375 C-30.25067008 1.31260628 -24.06040969 0.9240273 -17.453125 -1.62109375 C-11.25689691 -3.61403261 -5.88182146 -2.21482442 0 0 Z " fill="#F8F8F8" transform="translate(219.44921875,200.265625)"/>
<path d="M0 0 C3.8026029 2.0050088 5.61790841 3.42686262 8 7 C8.70903893 12.8688767 7.14809459 16.18952651 3.6875 20.75 C3.28337891 21.31332031 2.87925781 21.87664062 2.46289062 22.45703125 C-1.75653553 28.26131504 -1.75653553 28.26131504 -4 30 C-7.1875 29.6875 -7.1875 29.6875 -10 29 C-10 28.34 -10 27.68 -10 27 C-8.32278959 25.43041807 -6.53205886 24.0519475 -4.7265625 22.6328125 C-2.0170525 20.07042521 -1.04377047 17.96295031 -0.875 14.25 C-0.91625 13.5075 -0.9575 12.765 -1 12 C-1.309375 12.845625 -1.61875 13.69125 -1.9375 14.5625 C-4.25209062 19.31648759 -8.79346478 22.01926854 -13 25 C-13.640625 23.1640625 -13.640625 23.1640625 -14 21 C-11.53973429 18.12969001 -9.14510786 16.09673857 -6 14 C-10.37146792 14.48571866 -12.0408299 15.83674921 -15 19 C-15.66 19 -16.32 19 -17 19 C-15.50948318 14.39294801 -13.21457741 11.53603516 -10 8 C-9.34 7.67 -8.68 7.34 -8 7 C-11.10420715 7.33660078 -12.65007452 7.66830711 -14.94921875 9.84765625 C-15.52285156 10.57855469 -16.09648437 11.30945313 -16.6875 12.0625 C-17.7529033 13.40665627 -18.84956685 14.72785856 -20 16 C-20.66 16 -21.32 16 -22 16 C-20.95560992 9.21146446 -16.18191162 4.94275884 -11 1 C-7.53081128 -0.73459436 -3.79303468 -0.47173877 0 0 Z " fill="#EBEBEB" transform="translate(269,67)"/>
<path d="M0 0 C6.46214516 0.05554853 10.08269187 3.03780053 14.5 7.5 C16.30090857 9.51417405 17.29272081 11.03056529 18.5 13.5 C18.25 15.875 18.25 15.875 17.5 17.5 C16.695625 16.13875 16.695625 16.13875 15.875 14.75 C13.04125179 10.48425091 9.33722919 8.11240973 4.5 6.5 C4.5 7.16 4.5 7.82 4.5 8.5 C5.2425 8.70625 5.985 8.9125 6.75 9.125 C10.3424014 10.9212007 11.58309537 13.02117309 13.5 16.5 C13.5 17.49 13.5 18.48 13.5 19.5 C12.84 19.5 12.18 19.5 11.5 19.5 C11.5 18.84 11.5 18.18 11.5 17.5 C8.1136749 15.99069817 8.1136749 15.99069817 4.5 15.5 C5.304375 16.056875 6.10875 16.61375 6.9375 17.1875 C9.74228216 19.71864487 10.19381595 20.82579134 10.5 24.5 C4.87413137 22.73186986 1.72159437 19.33239156 -1.5 14.5 C-1.5 13.51 -1.5 12.52 -1.5 11.5 C-2.16 11.5 -2.82 11.5 -3.5 11.5 C-1.52972364 18.35118824 0.33757636 23.39171757 6.5 27.5 C6.5 28.16 6.5 28.82 6.5 29.5 C4.52 29.83 2.54 30.16 0.5 30.5 C-0.9630657 28.75395451 -2.4202808 27.00300547 -3.875 25.25 C-4.68710938 24.27546875 -5.49921875 23.3009375 -6.3359375 22.296875 C-9.92449657 17.65895389 -10.99436434 14.51416525 -10.8984375 8.69140625 C-10.26324487 5.19784679 -8.21059131 3.61558346 -5.5 1.5 C-3.89395393 -0.10604607 -2.22252285 0.13719277 0 0 Z " fill="#EDEDED" transform="translate(148.5,66.5)"/>
<path d="M0 0 C0.66 0 1.32 0 2 0 C0.125 6.875 0.125 6.875 -1 8 C-0.77973388 9.90191323 -0.55320575 11.80333797 -0.29296875 13.70019531 C0.84371139 22.62313439 2.02530907 32.26738884 -3.25 40 C-5.5534782 42.83505009 -7.57253574 44.68385373 -11 46 C-11.99 46 -12.98 46 -14 46 C-13.43410156 45.24074219 -12.86820313 44.48148438 -12.28515625 43.69921875 C-11.55167969 42.70535156 -10.81820312 41.71148437 -10.0625 40.6875 C-9.33160156 39.70136719 -8.60070312 38.71523437 -7.84765625 37.69921875 C-5.38163061 34.09663161 -4.87573051 31.5745945 -4.9375 27.3125 C-4.94652344 26.50425781 -4.95554688 25.69601563 -4.96484375 24.86328125 C-4.97644531 24.24839844 -4.98804688 23.63351563 -5 23 C-5.80824219 23.00902344 -6.61648437 23.01804688 -7.44921875 23.02734375 C-16.09866728 22.78737111 -16.09866728 22.78737111 -18.69921875 20.515625 C-19.875 18.6875 -19.875 18.6875 -20.91015625 16.78515625 C-22.66159191 13.91631719 -25.16206871 12.71595846 -28 11 C-28 10.67 -28 10.34 -28 10 C-20.08 9.505 -20.08 9.505 -12 9 C-12.66 7.68 -13.32 6.36 -14 5 C-12.205625 5.433125 -12.205625 5.433125 -10.375 5.875 C-7.63412269 6.24919779 -6.49226476 6.34779575 -4.203125 4.73046875 C-2.61340116 3.0911946 -2.61340116 3.0911946 -1.2265625 1.34765625 C-0.82179687 0.90292969 -0.41703125 0.45820312 0 0 Z " fill="#141414" transform="translate(189,108)"/>
<path d="M0 0 C0.45890625 0.44472656 0.9178125 0.88945313 1.390625 1.34765625 C2.00421875 1.91355469 2.6178125 2.47945313 3.25 3.0625 C3.85328125 3.63097656 4.4565625 4.19945313 5.078125 4.78515625 C6.91779018 6.23657085 6.91779018 6.23657085 9.0625 5.71875 C9.701875 5.4815625 10.34125 5.244375 11 5 C12.66519519 4.65939189 14.33157466 4.32441604 16 4 C15.34 5.32 14.68 6.64 14 8 C13.34 8 12.68 8 12 8 C12 8.66 12 9.32 12 10 C17.61 10 23.22 10 29 10 C27.36455016 11.63544984 25.72453718 13.26657693 24.0625 14.875 C21.88721526 16.94510821 21.88721526 16.94510821 20.4375 19.6875 C17.00370344 22.94520443 13.9665184 22.68865892 9.36328125 22.859375 C7.04372192 22.73499249 7.04372192 22.73499249 6 24 C5.36309237 30.05062248 6.20997268 33.18604321 9.7109375 38.140625 C11.0168221 40.0242646 12.02045704 41.93105879 13 44 C12.01 43.67 11.02 43.34 10 43 C9.67 43.66 9.34 44.32 9 45 C8.00466743 43.65767076 7.02949067 42.30038802 6.0625 40.9375 C5.51722656 40.18339844 4.97195312 39.42929688 4.41015625 38.65234375 C0.55548892 31.4021523 1.96374642 22.07994773 2.12695312 14.09765625 C2.13791016 13.10121094 2.14886719 12.10476562 2.16015625 11.078125 C2.17699463 10.17481445 2.19383301 9.27150391 2.21118164 8.34082031 C2.16329347 5.72743718 2.16329347 5.72743718 0 3 C0 2.01 0 1.02 0 0 Z " fill="#161616" transform="translate(224,108)"/>
<path d="M0 0 C2.1293392 0.75876453 4.25337573 1.5324234 6.375 2.3125 C7.55835938 2.74175781 8.74171875 3.17101562 9.9609375 3.61328125 C13 5 13 5 15 8 C11.7 8.33 8.4 8.66 5 9 C5.78503906 9.59425781 6.57007813 10.18851563 7.37890625 10.80078125 C14.31437976 16.21122304 20.42786792 21.71099854 24 30 C23.67 30.99 23.34 31.98 23 33 C21.74896484 31.89591797 21.74896484 31.89591797 20.47265625 30.76953125 C12.61622713 23.92222773 5.22746991 17.884671 -5 15 C-4.01 14.67 -3.02 14.34 -2 14 C-2.061875 12.576875 -2.061875 12.576875 -2.125 11.125 C-2 8 -2 8 0 6 C-0.66 6 -1.32 6 -2 6 C-1.49396008 3.83125748 -1.00016187 2.00032373 0 0 Z " fill="#181818" transform="translate(275,92)"/>
<path d="M0 0 C0.66 0.33 1.32 0.66 2 1 C3.00496852 4.01490557 3.10335303 6.04181692 3.0625 9.1875 C3.05347656 10.08855469 3.04445312 10.98960938 3.03515625 11.91796875 C3.02355469 12.60503906 3.01195312 13.29210937 3 14 C2.34 14 1.68 14 1 14 C1 14.99 1 15.98 1 17 C0.21689453 17.29390625 0.21689453 17.29390625 -0.58203125 17.59375 C-8.16754656 20.67578074 -16.38252546 25.07378819 -21 32 C-21.66 32 -22.32 32 -23 32 C-20.5981323 21.59190663 -12.63662215 15.40440541 -4 10 C-6.97 9.67 -9.94 9.34 -13 9 C-13 8.34 -13 7.68 -13 7 C-8.38987758 4.04952165 -5.63470383 2.4502728 0 3 C0 2.01 0 1.02 0 0 Z " fill="#141414" transform="translate(138,92)"/>
<path d="M0 0 C2.1293392 0.75876453 4.25337573 1.5324234 6.375 2.3125 C7.55835938 2.74175781 8.74171875 3.17101562 9.9609375 3.61328125 C13 5 13 5 15 8 C11.7 8.33 8.4 8.66 5 9 C4.67 10.32 4.34 11.64 4 13 C2.02 13 0.04 13 -2 13 C-2.125 10.625 -2.125 10.625 -2 8 C-1.34 7.34 -0.68 6.68 0 6 C-0.66 6 -1.32 6 -2 6 C-1.49396008 3.83125748 -1.00016187 2.00032373 0 0 Z " fill="#616161" transform="translate(275,92)"/>
<path d="M0 0 C0.66 0.33 1.32 0.66 2 1 C2 4.96 2 8.92 2 13 C0.02 13 -1.96 13 -4 13 C-4 12.01 -4 11.02 -4 10 C-6.97 9.67 -9.94 9.34 -13 9 C-13 8.34 -13 7.68 -13 7 C-8.38987758 4.04952165 -5.63470383 2.4502728 0 3 C0 2.01 0 1.02 0 0 Z " fill="#737373" transform="translate(138,92)"/>
<path d="M0 0 C3.76086991 5.64130487 3.0476984 14.39314594 2 21 C-0.02846932 25.75161991 -2.59203643 29.5294879 -7.046875 32.25 C-9 33 -9 33 -12 33 C-11.44570312 32.24074219 -10.89140625 31.48148438 -10.3203125 30.69921875 C-9.59585938 29.70535156 -8.87140625 28.71148437 -8.125 27.6875 C-7.04605469 26.20830078 -7.04605469 26.20830078 -5.9453125 24.69921875 C-4.5944065 22.82476885 -3.28164671 20.92247007 -2 19 C-2 19.66 -2 20.32 -2 21 C-1.34 20.67 -0.68 20.34 0 20 C0 13.4 0 6.8 0 0 Z " fill="#4F4F4F" transform="translate(187,121)"/>
<path d="M0 0 C0.33 0 0.66 0 1 0 C1.08636719 0.66386719 1.17273438 1.32773438 1.26171875 2.01171875 C2.18832751 7.83490224 3.08015428 11.28011665 8 15 C8.99 15.33 9.98 15.66 11 16 C10.67 17.32 10.34 18.64 10 20 C6.49490749 19.43736042 5.04731992 18.34814818 2.8125 15.625 C2.30332031 15.01914063 1.79414063 14.41328125 1.26953125 13.7890625 C-1.40016458 10.02684499 -1.1621892 6.46020301 -1 2 C-0.67 1.34 -0.34 0.68 0 0 Z " fill="#383838" transform="translate(155,126)"/>
<path d="M0 0 C0.33 0 0.66 0 1 0 C3.24752888 11.63320949 2.21499138 23.45040208 0 35 C-0.66 35 -1.32 35 -2 35 C-2.625 32.1875 -2.625 32.1875 -3 29 C-2.01 27.515 -2.01 27.515 -1 26 C-0.63155492 23.1913957 -0.63155492 23.1913957 -0.5859375 20.01953125 C-0.54726563 18.85615234 -0.50859375 17.69277344 -0.46875 16.49414062 C-0.4378125 15.27919922 -0.406875 14.06425781 -0.375 12.8125 C-0.33632813 11.58595703 -0.29765625 10.35941406 -0.2578125 9.09570312 C-0.16343897 6.06395344 -0.07785451 3.03221159 0 0 Z " fill="#A9A9A9" transform="translate(317,185)"/>
<path d="M0 0 C1.92759992 1.67617384 2.90534623 2.59772148 3.5 5.125 C3.665 5.74375 3.83 6.3625 4 7 C4.99 7.33 5.98 7.66 7 8 C6.01 8.33 5.02 8.66 4 9 C4 9.66 4 10.32 4 11 C1.69 11 -0.62 11 -3 11 C-3 10.01 -3 9.02 -3 8 C-3.66 7.67 -4.32 7.34 -5 7 C-4.34 7 -3.68 7 -3 7 C-2.690625 6.030625 -2.38125 5.06125 -2.0625 4.0625 C-1 1 -1 1 0 0 Z " fill="#5B5B5B" transform="translate(206,34)"/>
<path d="M0 0 C0.33 0 0.66 0 1 0 C1.54133971 6.63141145 0.89897323 10.54143747 -3 16 C-6 18 -6 18 -10 18 C-8.43930994 14.16921531 -5.93185886 11.85856238 -3 9 C-0.87491756 5.81237635 -0.4979837 3.73487777 0 0 Z " fill="#1B1B1B" transform="translate(259,127)"/>
<path d="M0 0 C2.73397536 2.52892721 4.93063422 4.89595133 7 8 C7 8.99 7 9.98 7 11 C2.56156561 9.60506348 0.0565036 7.48101799 -3 4 C-3.33 3.01 -3.66 2.02 -4 1 C-2 0 -2 0 0 0 Z " fill="#DCDCDC" transform="translate(152,80)"/>
<path d="M0 0 C4.21799748 6.32699622 4.35267435 13.61316685 4.625 21 C4.66367188 21.87011719 4.70234375 22.74023438 4.7421875 23.63671875 C4.83540887 25.75750486 4.91874136 27.87872185 5 30 C4.34 30.33 3.68 30.66 3 31 C2.90912109 29.24623047 2.90912109 29.24623047 2.81640625 27.45703125 C2.73195966 25.90884386 2.64731375 24.36066732 2.5625 22.8125 C2.52318359 22.04357422 2.48386719 21.27464844 2.44335938 20.48242188 C2.22492966 16.56748925 1.91307892 12.82879312 1 9 C0.34 9 -0.32 9 -1 9 C-0.67 6.03 -0.34 3.06 0 0 Z " fill="#B4B4B4" transform="translate(245,207)"/>
<path d="M0 0 C0.66 0.33 1.32 0.66 2 1 C1.46375 1.66 0.9275 2.32 0.375 3 C-0.9461356 4.66880286 -2.2525155 6.3507526 -3.49609375 8.078125 C-4.01300781 8.79484375 -4.52992188 9.5115625 -5.0625 10.25 C-5.54847656 10.93578125 -6.03445312 11.6215625 -6.53515625 12.328125 C-8 14 -8 14 -11 15 C-9.95276499 8.19297243 -5.15914922 3.98661531 0 0 Z " fill="#D0D0D0" transform="translate(258,68)"/>
<path d="M0 0 C0 0.66 0 1.32 0 2 C0.66 2.33 1.32 2.66 2 3 C-3.40303965 7.67289916 -8.04769059 7.44534366 -15 7 C-15 6.67 -15 6.34 -15 6 C-11.7 6 -8.4 6 -5 6 C-5 5.34 -5 4.68 -5 4 C-5.99 3.67 -6.98 3.34 -8 3 C-2 0 -2 0 0 0 Z " fill="#B9B9B9" transform="translate(235,189)"/>
<path d="M0 0 C0.66 0.33 1.32 0.66 2 1 C2 2.98 2 4.96 2 7 C1.34 7 0.68 7 0 7 C-0.33 13.6 -0.66 20.2 -1 27 C-1.66 26.67 -2.32 26.34 -3 26 C-2.22095672 8.14350797 -2.22095672 8.14350797 0 0 Z " fill="#878787" transform="translate(137,219)"/>
<path d="M0 0 C1.32 0.66 2.64 1.32 4 2 C4 2.33 4 2.66 4 3 C0.7 3.33 -2.6 3.66 -6 4 C-6.33 5.32 -6.66 6.64 -7 8 C-8.98 8 -10.96 8 -13 8 C-13 6.68 -13 5.36 -13 4 C-12.34 4 -11.68 4 -11 4 C-11 4.66 -11 5.32 -11 6 C-10.34 6 -9.68 6 -9 6 C-9 4.68 -9 3.36 -9 2 C-4.545 1.505 -4.545 1.505 0 1 C0 0.67 0 0.34 0 0 Z " fill="#797979" transform="translate(286,97)"/>
<path d="M0 0 C0.66 0.33 1.32 0.66 2 1 C-2.62 5.62 -7.24 10.24 -12 15 C-12 10.91678393 -10.42111745 9.89782894 -7.6875 6.9375 C-6.88699219 6.05964844 -6.08648437 5.18179688 -5.26171875 4.27734375 C-3 2 -3 2 0 0 Z " fill="#2B2B2B" transform="translate(258,61)"/>
<path d="M0 0 C0.33 0 0.66 0 1 0 C1.66 5.28 2.32 10.56 3 16 C-0.47062914 12.52937086 -1.8513325 10.82117684 -2.25 5.9375 C-2 3 -2 3 0 0 Z " fill="#4D4D4D" transform="translate(221,126)"/>
<path d="M0 0 C0.33 0.66 0.66 1.32 1 2 C-2 6.5 -2 6.5 -5 11 C-5.33 10.34 -5.66 9.68 -6 9 C-6.99 9.66 -7.98 10.32 -9 11 C-8.05849859 6.8573938 -7.39419749 5.29765933 -3.9375 2.6875 C-2.968125 2.130625 -1.99875 1.57375 -1 1 C-0.67 0.67 -0.34 0.34 0 0 Z " fill="#242424" transform="translate(180,151)"/>
<path d="M0 0 C0.66 0 1.32 0 2 0 C1.34 8.91 0.68 17.82 0 27 C-0.33 27 -0.66 27 -1 27 C-1.02886537 22.68751391 -1.04675255 18.37505238 -1.0625 14.0625 C-1.07087891 12.83080078 -1.07925781 11.59910156 -1.08789062 10.33007812 C-1.09111328 9.16025391 -1.09433594 7.99042969 -1.09765625 6.78515625 C-1.10289307 5.70113525 -1.10812988 4.61711426 -1.11352539 3.50024414 C-1 1 -1 1 0 0 Z " fill="#5D5D5D" transform="translate(108,180)"/>
<path d="M0 0 C0.33 0 0.66 0 1 0 C3 6.625 3 6.625 3 10 C2.01 10 1.02 10 0 10 C-0.33 10.66 -0.66 11.32 -1 12 C-1.2226746 10.56465159 -1.42761906 9.12654475 -1.625 7.6875 C-1.74101562 6.88699219 -1.85703125 6.08648437 -1.9765625 5.26171875 C-2 3 -2 3 0 0 Z " fill="#828282" transform="translate(188,158)"/>
<path d="M0 0 C0 0.66 0 1.32 0 2 C-3.20380017 4.13586678 -4.01939967 4.23132175 -7.6875 4.125 C-8.89986328 4.09792969 -8.89986328 4.09792969 -10.13671875 4.0703125 C-11.05904297 4.03550781 -11.05904297 4.03550781 -12 4 C-12 3.34 -12 2.68 -12 2 C-8.09971775 -0.60018816 -4.52565431 -0.15085514 0 0 Z " fill="#323232" transform="translate(137,97)"/>
<path d="M0 0 C0.66 0 1.32 0 2 0 C1.67 2.64 1.34 5.28 1 8 C0.34 7.01 -0.32 6.02 -1 5 C-2.65 6.65 -4.3 8.3 -6 10 C-6.66 9.67 -7.32 9.34 -8 9 C-6.71520959 7.49410612 -5.42195918 5.99542625 -4.125 4.5 C-3.04605469 3.24703125 -3.04605469 3.24703125 -1.9453125 1.96875 C-1.30335937 1.3190625 -0.66140625 0.669375 0 0 Z " fill="#C4C4C4" transform="translate(94,146)"/>
<path d="M0 0 C4.06537046 3.54416912 5.56094939 5.62163005 6 11 C6.185625 12.11375 6.37125 13.2275 6.5625 14.375 C6.706875 15.24125 6.85125 16.1075 7 17 C4.59927045 14.11912454 2.52708963 11.43595166 1 8 C1.66 8 2.32 8 3 8 C2.505 7.05125 2.01 6.1025 1.5 5.125 C0 2 0 2 0 0 Z " fill="#989898" transform="translate(300,134)"/>
<path d="M0 0 C-0.33 3.63 -0.66 7.26 -1 11 C-1.33 11 -1.66 11 -2 11 C-2.33 9.02 -2.66 7.04 -3 5 C-5.31 6.98 -7.62 8.96 -10 11 C-8.43804596 7.87609191 -7.20579304 5.83077786 -5 3.25 C-4.484375 2.63640625 -3.96875 2.0228125 -3.4375 1.390625 C-2 0 -2 0 0 0 Z " fill="#C4C4C4" transform="translate(290,236)"/>
<path d="M0 0 C1.92759992 1.67617384 2.90534623 2.59772148 3.5 5.125 C3.665 5.74375 3.83 6.3625 4 7 C4.99 7.33 5.98 7.66 7 8 C3.86501708 9.85776765 1.62528568 10.20140476 -2 10 C-1.01 9.67 -0.02 9.34 1 9 C0.835 8.071875 0.67 7.14375 0.5 6.1875 C0 3 0 3 0 0 Z " fill="#878787" transform="translate(206,34)"/>
<path d="M0 0 C0.99 0.33 1.98 0.66 3 1 C3 1.66 3 2.32 3 3 C6.465 2.505 6.465 2.505 10 2 C10.33 2.99 10.66 3.98 11 5 C7.7 5 4.4 5 1 5 C0.67 3.35 0.34 1.7 0 0 Z " fill="#C2C2C2" transform="translate(172,122)"/>
<path d="M0 0 C0.57234375 0.23589844 1.1446875 0.47179687 1.734375 0.71484375 C0.23697917 1.95182292 -1.26041667 3.18880208 -2.7578125 4.42578125 C-3.97613661 5.46735367 -5.13222597 6.58144472 -6.265625 7.71484375 C-8.390625 7.33984375 -8.390625 7.33984375 -10.265625 6.71484375 C-9.03009224 5.51229851 -7.77660161 4.32818143 -6.515625 3.15234375 C-5.81953125 2.49105469 -5.1234375 1.82976562 -4.40625 1.1484375 C-2.265625 -0.28515625 -2.265625 -0.28515625 0 0 Z " fill="#323232" transform="translate(260.265625,73.28515625)"/>
<path d="M0 0 C0.99 0 1.98 0 3 0 C2.34 1.65 1.68 3.3 1 5 C-1.97 5 -4.94 5 -8 5 C-8 4.01 -8 3.02 -8 2 C-5.69 2 -3.38 2 -1 2 C-0.67 1.34 -0.34 0.68 0 0 Z " fill="#C7C7C7" transform="translate(240,122)"/>
<path d="M0 0 C1.485 0.99 1.485 0.99 3 2 C2.44894091 5.9492568 1.61064629 9.34920174 0 13 C-0.33 13 -0.66 13 -1 13 C-1.07654536 8.48382401 -1.10228696 4.40914783 0 0 Z " fill="#C9C9C9" transform="translate(100,145)"/>
<path d="M0 0 C0 3.55775991 -1.31469721 5.23845911 -3.109375 8.21484375 C-4.27440323 10.55000999 -4.31105409 12.43380373 -4 15 C-4.99 15.495 -4.99 15.495 -6 16 C-6.8703035 13.27304904 -7.31377616 11.79362001 -7 9 C-5.00186626 5.69418712 -2.59452266 2.85332791 0 0 Z " fill="#5E5E5E" transform="translate(114,132)"/>
<path d="M0 0 C2.38564077 0.57584432 4.66682784 1.22227595 7 2 C6.67 3.32 6.34 4.64 6 6 C3.13275314 5.42655063 2.1385485 5.1385485 0 3 C0 2.01 0 1.02 0 0 Z " fill="#303030" transform="translate(159,140)"/>
<path d="M0 0 C0.66 0.33 1.32 0.66 2 1 C-1.63 4.63 -5.26 8.26 -9 12 C-9 7.8407692 -6.75316432 5.85455565 -4 3 C-1.6875 1.125 -1.6875 1.125 0 0 Z " fill="#2E2E2E" transform="translate(129,105)"/>
<path d="M0 0 C0.66 0.33 1.32 0.66 2 1 C-1.96 4.96 -5.92 8.92 -10 13 C-10.66 12.67 -11.32 12.34 -12 12 C-8.32167983 7.47384007 -4.58913637 3.60575001 0 0 Z " fill="#282828" transform="translate(119,67)"/>
<path d="M0 0 C0.33 0.66 0.66 1.32 1 2 C1.66 2.33 2.32 2.66 3 3 C0.36 5.64 -2.28 8.28 -5 11 C-5 7.58678765 -4.33132534 6.60527115 -2.5 3.8125 C-2.0359375 3.09707031 -1.571875 2.38164062 -1.09375 1.64453125 C-0.7328125 1.10183594 -0.371875 0.55914062 0 0 Z " fill="#353535" transform="translate(132,185)"/>
<path d="M0 0 C2 2 2 2 2.1953125 3.9453125 C2.13020833 5.96354167 2.06510417 7.98177083 2 10 C-0.475 9.01 -0.475 9.01 -3 8 C-2.01 5.36 -1.02 2.72 0 0 Z " fill="#737373" transform="translate(226,159)"/>
<path d="M0 0 C0.66 0.33 1.32 0.66 2 1 C2.27429625 6.39449293 2.36055646 9.51925805 -1 14 C-2.15837573 10.52487282 -1.77265943 8.86329714 -1.0625 5.3125 C-0.86785156 4.31863281 -0.67320312 3.32476562 -0.47265625 2.30078125 C-0.31667969 1.54152344 -0.16070312 0.78226562 0 0 Z " fill="#2C2C2C" transform="translate(193,127)"/>
<path d="M0 0 C2.33524782 2.25740623 4.18705073 4.2805761 6 7 C5.625 9.1875 5.625 9.1875 5 11 C4.401875 10.071875 3.80375 9.14375 3.1875 8.1875 C1.54727155 5.79745282 0.1281083 3.91529747 -2 2 C-1.34 2 -0.68 2 0 2 C0 1.34 0 0.68 0 0 Z " fill="#CDCDCD" transform="translate(161,73)"/>
<path d="M0 0 C2.2477975 2.05233685 3.0022242 3.00667261 4 6 C3.40206327 8.35188447 2.74118205 10.68925595 2 13 C0.21590198 9.93753253 -0.22880021 7.77920727 -0.125 4.25 C-0.10695312 3.45078125 -0.08890625 2.6515625 -0.0703125 1.828125 C-0.04710937 1.22484375 -0.02390625 0.6215625 0 0 Z " fill="#D4D4D4" transform="translate(140,250)"/>
<path d="M0 0 C3.08089673 2.77280706 4.68775452 5.06326356 6 9 C5.34 9 4.68 9 4 9 C4 9.99 4 10.98 4 12 C3.34 11.67 2.68 11.34 2 11 C1.59367909 9.01354224 1.27050453 7.00946222 1 5 C0.67364302 3.33195323 0.34274406 1.66475686 0 0 Z " fill="#1D1D1D" transform="translate(304,140)"/>
<path d="M0 0 C1.485 0.99 1.485 0.99 3 2 C3.3984375 4.05859375 3.3984375 4.05859375 3.375 6.4375 C3.38273438 7.21996094 3.39046875 8.00242188 3.3984375 8.80859375 C3 11 3 11 0 14 C0 9.38 0 4.76 0 0 Z " fill="#454545" transform="translate(244,142)"/>
<path d="M0 0 C0.99 0 1.98 0 3 0 C2.67 2.64 2.34 5.28 2 8 C-0.3125 8.6875 -0.3125 8.6875 -3 9 C-4.8125 7.5625 -4.8125 7.5625 -6 6 C-4.576875 5.87625 -4.576875 5.87625 -3.125 5.75 C0.10461791 5.34925077 0.10461791 5.34925077 1.375 2.9375 C1.58125 2.298125 1.7875 1.65875 2 1 C1.34 0.67 0.68 0.34 0 0 Z " fill="#313131" transform="translate(241,121)"/>
<path d="M0 0 C0.99 0.33 1.98 0.66 3 1 C2.34 1 1.68 1 1 1 C1.33 2.32 1.66 3.64 2 5 C4.31 5.33 6.62 5.66 9 6 C9 6.33 9 6.66 9 7 C7.02 7 5.04 7 3 7 C3 7.66 3 8.32 3 9 C1.68 8.34 0.36 7.68 -1 7 C-0.67 4.69 -0.34 2.38 0 0 Z " fill="#414141" transform="translate(171,121)"/>
<path d="M0 0 C0.33 0 0.66 0 1 0 C1 3.63 1 7.26 1 11 C0.34 9.68 -0.32 8.36 -1 7 C-1.99 7.495 -1.99 7.495 -3 8 C-2.45276317 4.62537285 -1.9451 2.91765 0 0 Z " fill="#D0D0D0" transform="translate(100,195)"/>
<path d="M0 0 C0.88863453 3.08155521 1.19260482 5.92043596 1.25 9.125 C1.27578125 9.99382812 1.3015625 10.86265625 1.328125 11.7578125 C1.21984375 12.49773437 1.1115625 13.23765625 1 14 C0.01 14.66 -0.98 15.32 -2 16 C-1.85890014 13.89551062 -1.71195825 11.7914123 -1.5625 9.6875 C-1.48128906 8.51574219 -1.40007812 7.34398437 -1.31640625 6.13671875 C-1 3 -1 3 0 0 Z " fill="#606060" transform="translate(87,140)"/>
<path d="M0 0 C3.2542015 2.83430453 4.5206753 4.68607774 5 9 C4.34 9 3.68 9 3 9 C3 8.34 3 7.68 3 7 C0.525 6.01 0.525 6.01 -2 5 C-1.01 4.67 -0.02 4.34 1 4 C0.67 2.68 0.34 1.36 0 0 Z " fill="#AAAAAA" transform="translate(157,77)"/>
<path d="M0 0 C0.66 0 1.32 0 2 0 C2 4.29 2 8.58 2 13 C1.67 13 1.34 13 1 13 C0.67 10.36 0.34 7.72 0 5 C-0.66 5 -1.32 5 -2 5 C-1.34 3.35 -0.68 1.7 0 0 Z " fill="#303030" transform="translate(124,213)"/>
<path d="M0 0 C0.66 0 1.32 0 2 0 C2 3 2 3 0.25 4.82421875 C-0.4925 5.43910156 -1.235 6.05398437 -2 6.6875 C-2.7425 7.31011719 -3.485 7.93273437 -4.25 8.57421875 C-4.8275 9.04472656 -5.405 9.51523438 -6 10 C-6.66 9.67 -7.32 9.34 -8 9 C-6.71520959 7.49410612 -5.42195918 5.99542625 -4.125 4.5 C-3.04605469 3.24703125 -3.04605469 3.24703125 -1.9453125 1.96875 C-1.30335938 1.3190625 -0.66140625 0.669375 0 0 Z " fill="#D5D5D5" transform="translate(150,172)"/>
<path d="M0 0 C3.68754757 0.49831724 5.60490662 1.10067643 8 4 C5.36 4 2.72 4 0 4 C0 2.68 0 1.36 0 0 Z " fill="#0F0F0F" transform="translate(279,95)"/>
<path d="M0 0 C1.14229879 3.42689636 0.90861076 5.61102218 0.5625 9.1875 C0.40974609 10.81751953 0.40974609 10.81751953 0.25390625 12.48046875 C0.17011719 13.31191406 0.08632812 14.14335937 0 15 C-0.33 15 -0.66 15 -1 15 C-1.06058594 14.37351563 -1.12117187 13.74703125 -1.18359375 13.1015625 C-1.26738281 12.28429687 -1.35117188 11.46703125 -1.4375 10.625 C-1.51871094 9.81289062 -1.59992188 9.00078125 -1.68359375 8.1640625 C-1.89090114 5.95727195 -1.89090114 5.95727195 -3 4 C-2.01 2.68 -1.02 1.36 0 0 Z " fill="#484848" transform="translate(146,226)"/>
<path d="M0 0 C3.3 0.33 6.6 0.66 10 1 C10 1.66 10 2.32 10 3 C7.36 3 4.72 3 2 3 C2 2.34 2 1.68 2 1 C1.34 0.67 0.68 0.34 0 0 Z " fill="#767676" transform="translate(196,165)"/>
<path d="M0 0 C0.66 0 1.32 0 2 0 C1.34 3.63 0.68 7.26 0 11 C-2 9 -2 9 -2.25 6.0625 C-2 3 -2 3 0 0 Z " fill="#343434" transform="translate(169,142)"/>
<path d="M0 0 C0.33 0.66 0.66 1.32 1 2 C1.66 2 2.32 2 3 2 C2.42655063 4.86724686 2.1385485 5.8614515 0 8 C-0.99 7.34 -1.98 6.68 -3 6 C-2.01 4.02 -1.02 2.04 0 0 Z " fill="#292929" transform="translate(184,140)"/>
<path d="M0 0 C-2.64 1.65 -5.28 3.3 -8 5 C-8.33 3.68 -8.66 2.36 -9 1 C-3.375 -1.125 -3.375 -1.125 0 0 Z " fill="#3C3C3C" transform="translate(126,78)"/>
<path d="M0 0 C2.5 2.3125 2.5 2.3125 5 5 C5 5.99 5 6.98 5 8 C4.67 7.67 4.34 7.34 4 7 C3.01 8.485 3.01 8.485 2 10 C0.41497329 6.82994658 0.39614933 3.50875122 0 0 Z " fill="#4D4D4D" transform="translate(195,65)"/>
<path d="M0 0 C0.99 0.33 1.98 0.66 3 1 C3 2.65 3 4.3 3 6 C1.68 6 0.36 6 -1 6 C-1.042721 4.33388095 -1.04063832 2.66617115 -1 1 C-0.67 0.67 -0.34 0.34 0 0 Z " fill="#676767" transform="translate(135,99)"/>
<path d="M0 0 C2.61500768 2.36595933 4.38999603 4.86049226 6 8 C5.67 8.66 5.34 9.32 5 10 C0 4.5 0 4.5 0 0 Z " fill="#565656" transform="translate(276,184)"/>
<path d="M0 0 C0.33 0.66 0.66 1.32 1 2 C-0.125 5.0625 -0.125 5.0625 -2 8 C-4.6875 8.875 -4.6875 8.875 -7 9 C-6.02180976 7.68677212 -5.0424189 6.37443848 -4.0625 5.0625 C-3.51722656 4.33160156 -2.97195312 3.60070312 -2.41015625 2.84765625 C-1 1 -1 1 0 0 Z " fill="#383838" transform="translate(106,130)"/>
<path d="M0 0 C0.66 0.33 1.32 0.66 2 1 C-0.31 3.31 -2.62 5.62 -5 8 C-5.33 7.34 -5.66 6.68 -6 6 C-2.25 1.125 -2.25 1.125 0 0 Z " fill="#CACACA" transform="translate(174,82)"/>
<path d="M0 0 C-1.65 1.32 -3.3 2.64 -5 4 C-5.33 3.34 -5.66 2.68 -6 2 C-8.02463255 1.34786708 -8.02463255 1.34786708 -10 1 C-6.52674819 -0.1577506 -3.63932552 -0.06866652 0 0 Z " fill="#C8C8C8" transform="translate(127,62)"/>
<path d="M0 0 C3.375 -0.125 3.375 -0.125 7 0 C7.66 0.66 8.32 1.32 9 2 C8.01 2 7.02 2 6 2 C5.67 2.66 5.34 3.32 5 4 C3.31503702 3.03114628 1.64821244 2.03013277 0 1 C0 0.67 0 0.34 0 0 Z " fill="#D3D3D3" transform="translate(287,62)"/>
<path d="M0 0 C1.5625 1.8125 1.5625 1.8125 3 4 C2.67 4.99 2.34 5.98 2 7 C0.35 5.35 -1.3 3.7 -3 2 C-2.01 1.34 -1.02 0.68 0 0 Z " fill="#9E9E9E" transform="translate(185,272)"/>
<path d="M0 0 C0.66 0.66 1.32 1.32 2 2 C0.02 3.98 -1.96 5.96 -4 8 C-4.66 7.67 -5.32 7.34 -6 7 C-4.02 4.69 -2.04 2.38 0 0 Z " fill="#CBCBCB" transform="translate(264,270)"/>
<path d="M0 0 C1.2380014 3.57644848 0.74926071 6.33694766 0 10 C-0.28875 9.360625 -0.5775 8.72125 -0.875 8.0625 C-1.82823451 5.84793921 -1.82823451 5.84793921 -4 5 C-2.68 3.35 -1.36 1.7 0 0 Z " fill="#BABABA" transform="translate(249,265)"/>
<path d="M0 0 C0.66 1.32 1.32 2.64 2 4 C2.99 4.33 3.98 4.66 5 5 C3.35 6.32 1.7 7.64 0 9 C0 6.03 0 3.06 0 0 Z " fill="#CDCDCD" transform="translate(101,179)"/>
<path d="M0 0 C0.33 0 0.66 0 1 0 C1.05422947 1.4370809 1.09289723 2.87475462 1.125 4.3125 C1.14820313 5.11300781 1.17140625 5.91351563 1.1953125 6.73828125 C1 9 1 9 -1 12 C-1 11.34 -1 10.68 -1 10 C-1.66 9.67 -2.32 9.34 -3 9 C-2.34 8.01 -1.68 7.02 -1 6 C-0.60986284 4.0103005 -0.26797351 2.00980131 0 0 Z " fill="#3B3B3B" transform="translate(259,127)"/>
<path d="M0 0 C0.66 0 1.32 0 2 0 C2.99 2.31 3.98 4.62 5 7 C3.68 7 2.36 7 1 7 C0.67 4.69 0.34 2.38 0 0 Z " fill="#535353" transform="translate(145,78)"/>
<path d="M0 0 C0.6875 1.75 0.6875 1.75 1 4 C-0.3125 6.25 -0.3125 6.25 -2 8 C-2.66 8 -3.32 8 -4 8 C-2.87548273 5.0280615 -1.77706209 2.66559313 0 0 Z " fill="#A9A9A9" transform="translate(256,78)"/>
<path d="M0 0 C0.33 0 0.66 0 1 0 C1 2.97 1 5.94 1 9 C0.34 9 -0.32 9 -1 9 C-1.625 6.1875 -1.625 6.1875 -2 3 C-1.34 2.01 -0.68 1.02 0 0 Z " fill="#787878" transform="translate(316,211)"/>
<path d="M0 0 C3.3 0 6.6 0 10 0 C9.67 1.65 9.34 3.3 9 5 C8.34 4.01 7.68 3.02 7 2 C3.43230448 1.26393501 3.43230448 1.26393501 0 1 C0 0.67 0 0.34 0 0 Z " fill="#C0C0C0" transform="translate(225,202)"/>
<path d="M0 0 C-0.6875 1.9375 -0.6875 1.9375 -2 4 C-4.625 4.75 -4.625 4.75 -7 5 C-7 4.34 -7 3.68 -7 3 C-2.61538462 0 -2.61538462 0 0 0 Z " fill="#818181" transform="translate(239,181)"/>
<path d="M0 0 C0.66 0.33 1.32 0.66 2 1 C1.43628586 4.26954202 0.50037734 5.82575883 -2 8 C-1.125 2.25 -1.125 2.25 0 0 Z " fill="#C2C2C2" transform="translate(111,138)"/>
<path d="M0 0 C0.66 0.33 1.32 0.66 2 1 C1.67 1.99 1.34 2.98 1 4 C-1.31 4.33 -3.62 4.66 -6 5 C-2.25 1.125 -2.25 1.125 0 0 Z " fill="#C4C4C4" transform="translate(135,50)"/>
</svg>

